<svg xmlns="http://www.w3.org/2000/svg" width="140" height="88" fill="none"><path fill="#0480EE" d="M46.837.301c-1.434.425-2.29 1.145-2.973 2.437l-.577 1.08-.052 3.778c-.035 2.65-.123 3.795-.263 3.877-.122.065-1.276.13-2.57.13-2.047 0-2.432.05-2.939.328-.804.458-1.259 1.243-1.259 2.175 0 .949.332 1.603 1.084 2.11.525.344.805.377 3.2.458l2.624.082.053 5.087.035 5.103-.385.099c-.227.049-1.347.098-2.501.098-1.714 0-2.221.049-2.71.31a2.495 2.495 0 0 0-.14 4.433c.506.278.891.327 2.937.327 1.294 0 2.466.066 2.589.131.157.115.21 1.26.175 5.202l-.053 5.054-2.57.082c-2.24.065-2.624.13-3.061.425-.84.589-1.277 1.341-1.277 2.225 0 .965.332 1.619 1.084 2.126.525.343.805.376 3.2.458l2.624.082.088 4.498.087 4.498.49.932c.594 1.145 1.853 2.241 3.025 2.634.805.262 2.256.278 23.942.245l23.086-.049.822-.376c1.084-.507 2.063-1.423 2.588-2.42l.437-.802V3.834L97.1 2.722c-.42-.769-.822-1.26-1.382-1.669C94.144-.075 95.578-.01 70.5.007 49.058.007 47.782.023 46.837.3Zm25.569 7.295c.612.295 1.154.883 1.486 1.587.508 1.161.245 2.028-.962 3.222-.717.72-.734.769-.664 1.62.087 1.014.402 1.34 1.26 1.34.699 0 2.5.491 4.039 1.097 1.294.507 2.868 1.439 4.425 2.617.524.392 1.032.703 1.154.703.122 0 .507-.196.857-.458.612-.425.804-.801 1.084-2.028.123-.605 1.085-1.603 1.784-1.865.735-.294 2.046-.294 2.64 0 1.627.802 2.257 2.65 1.382 4.106-.594.981-1.504 1.39-3.095 1.39-1.417 0-1.836.18-2.431 1.047l-.332.474.577.998c2.483 4.22 2.57 9.749.262 14.427-.385.785-.7 1.537-.7 1.685 0 .147.21.474.473.752.42.458.542.49 2.046.572 1.871.099 2.606.426 3.218 1.44.595 1.014.525 2.11-.192 3.01-.315.392-.84.834-1.172.981-.735.36-2.116.376-2.763.066-1.032-.508-1.784-1.57-1.784-2.52 0-.621-.56-1.39-1.294-1.831l-.647-.36-.613.474c-2.028 1.505-2.903 2.077-3.917 2.568-1.19.589-3.393 1.26-5.124 1.57-.577.115-1.067.295-1.12.426-.21.54.158 1.733.718 2.322.804.85.979 1.21.979 2.078 0 .916-.297 1.504-1.137 2.175-.734.622-1.224.752-2.36.654-1.068-.098-2.012-.736-2.467-1.668-.595-1.243-.332-2.355.822-3.402.402-.377.612-.753.7-1.243.14-.9-.07-1.113-1.294-1.342-3.114-.589-5.65-1.668-7.818-3.353-.927-.736-1.469-1.047-1.696-.981-.175.049-.455.114-.612.163-.49.148-1.277 1.227-1.277 1.75 0 1.587-1.854 3.06-3.533 2.814-1.591-.245-2.763-1.472-2.763-2.912 0-.932.297-1.52 1.137-2.192.7-.588.926-.654 2.57-.736 1.067-.049 1.242-.098 1.802-.605.332-.31.612-.638.612-.752 0-.098-.35-.883-.77-1.734-1.294-2.6-1.591-3.844-1.591-7 0-3.174.315-4.548 1.556-6.953.718-1.373.753-1.504.525-1.913-.437-.785-1.014-1.014-2.588-1.014-1.662-.017-2.151-.246-2.85-1.374-1.173-1.849.139-4.106 2.553-4.4 1.521-.197 3.113 1.095 3.305 2.65.07.637.21.85.874 1.39.438.36.84.654.927.654.07 0 .595-.327 1.154-.752 2.939-2.143 4.74-2.961 7.765-3.534l1.994-.376.053-.932c.052-.883.017-.949-.735-1.75-1.26-1.325-1.451-2.585-.577-3.779.962-1.325 2.658-1.766 4.145-1.063Z"/><path fill="#057FEE" d="M68.296 17.901c-4.477.769-8.027 3.288-9.969 7.034-.962 1.88-1.346 3.467-1.346 5.56.017 2.929 1.154 5.808 3.165 8.049 1.137 1.259 1.417 1.406 1.417.752 0-1.309 1.679-3.206 3.585-4.057 1.766-.768 2.938-.981 5.684-.965 2.746 0 4.232.246 5.894.965 1.731.736 3.305 2.487 3.41 3.812.017.294.087.523.157.523.228 0 1.907-1.783 2.519-2.699.944-1.358 1.644-3.288 1.871-5.12.245-1.946-.088-4.105-.91-6.052-2.43-5.66-8.936-8.947-15.477-7.802Zm5.054 5.054c1.907.884 2.903 2.47 2.903 4.678 0 1.358-.56 2.503-1.678 3.419-.997.818-2.082 1.161-3.656 1.161-1.644 0-2.675-.36-3.777-1.276-1.224-1.03-1.732-2.06-1.732-3.549 0-1.341.35-2.175 1.312-3.173 1.731-1.8 4.355-2.29 6.628-1.26Z"/><path fill="#054D94" d="M7.068 70.897c-2.641.54-4.827 2.127-6.016 4.4-1.417 2.683-1.4 5.447.035 8.26.664 1.31 2.29 2.896 3.602 3.517 4.337 2.061 9.672.557 11.7-3.287.402-.753.577-1.26.473-1.358-.088-.082-.84-.196-1.644-.262l-1.487-.114-.7.883c-2.168 2.715-6.628 2.536-8.57-.343-1.45-2.16-1.188-5.333.613-7.263 2.134-2.273 6.4-2.012 8.237.507.42.556.63.704 1.05.704.63 0 1.678-.475 2.22-1.014l.385-.393-.524-.752c-1.225-1.718-3.34-3.06-5.58-3.5-1.398-.279-2.395-.279-3.794.015ZM48.604 72.288c0 .049 0 .801.017 1.668l.018 1.603H46.26l.035 1.26.018 1.276 1.154.049 1.154.049v3.582c0 1.963.07 3.762.175 3.991.315.818 1.4 1.718 2.326 1.98 1.05.294 1.714.31 2.92.065l.875-.18V85.03l-.874.114c-1.05.131-1.802-.114-2.081-.687-.123-.261-.193-1.504-.193-3.336v-2.945h3.673V75.56h-3.673V72.206h-1.574c-.857 0-1.574.033-1.591.082ZM85.767 72.272c-.035.032-.07.801-.07 1.684v1.603H83.424v2.618h2.239l.07 3.549c.052 2.143.157 3.746.28 4.007.401.916 1.433 1.75 2.447 2.029 1.032.278 2.659.245 3.586-.082.454-.164.472-.213.472-1.407v-1.227h-1.47c-2.08 0-2.028.082-2.028-3.794v-3.075h3.673V75.559H89.02V72.206H87.43c-.875 0-1.627.033-1.662.066ZM75.536 75.412c-3.742.376-6.19 3.795-5.421 7.54.612 2.896 2.886 4.826 5.894 5.006 2.955.18 5.071-.867 6.278-3.108.927-1.75.91-1.766-.927-1.766h-1.556l-.42.605c-1.172 1.7-3.27 1.995-4.792.687-2.956-2.552-.437-7.525 3.113-6.134.525.196 1.294.9 1.661 1.505.105.18.438.261 1.032.278.682.032 1.015-.066 1.592-.425l.734-.442-.367-.67c-.542-.999-1.662-2.045-2.676-2.52-1.032-.474-2.728-.703-4.145-.556ZM21.846 75.772c-1.767.687-2.746 1.587-3.515 3.157-.315.67-.385 1.096-.385 2.682-.018 1.816 0 1.93.56 2.977 1.066 2.029 2.955 3.174 5.56 3.354 2.991.212 5.475-1.096 6.682-3.517.42-.834.472-1.129.472-2.732 0-1.603-.053-1.897-.472-2.731a6.353 6.353 0 0 0-3.079-2.945c-1.049-.49-1.329-.54-3.008-.588-1.609-.033-1.958 0-2.815.343Zm4.127 2.437c2.449 1.162 2.693 4.973.402 6.461-1.276.818-3.2.638-4.197-.392-.944-.966-1.26-2.748-.752-4.171.647-1.767 2.85-2.683 4.547-1.898ZM37.69 75.788c-.472.213-1.031.54-1.206.736-.49.524-.665.426-.56-.31l.088-.655H32.88v12.186h3.061l.087-3.925c.07-3.435.123-3.992.402-4.384.525-.753 1.295-1.096 2.519-1.096.91 0 1.154.065 1.609.425.944.736.98.85 1.067 5.022l.087 3.91 1.627.015 1.626.033-.053-4.334c-.052-4.122-.07-4.384-.454-5.17-.507-1.062-1.82-2.273-2.816-2.6-1.172-.376-2.903-.327-3.952.147ZM60.566 75.625a8.86 8.86 0 0 0-1.347.572c-.612.36-2.203 1.898-2.203 2.143 0 .196 1.276.621 2.238.752.84.099.91.082 1.504-.474.717-.687 1.837-.916 2.886-.621.944.261 1.294.686 1.382 1.717l.07.883-2.851.066c-2.623.049-2.938.098-3.743.458-3.008 1.406-2.518 5.708.77 6.608 1.906.523 3.917.213 5.351-.802l.787-.572.035.458c0 .245.035.54.035.654.018.18.385.23 1.504.23h1.487v-4.483c0-4.35-.018-4.481-.42-5.332-.507-1.063-1.469-1.865-2.658-2.208-1.085-.327-3.76-.36-4.827-.05Zm4.302 7.279c.42.245.088 1.243-.594 1.799-1.54 1.26-4.285.916-4.285-.54 0-.638.437-1.063 1.259-1.243.805-.18 3.323-.196 3.62-.016Z"/><path fill="#084E96" d="M94.791 79.272v8.473l1.697-.033 1.714-.032.052-3.435.035-3.452h8.045v6.952h3.323V70.816h-3.323l-.035 3.435-.052 3.435-3.988.049-3.97.032V70.816h-3.498v8.456ZM126.621 79.354v8.391h3.323v-1.783l.752.67c1.189 1.08 1.731 1.277 3.445 1.26 1.19 0 1.662-.081 2.326-.376 1.207-.556 2.326-1.652 2.973-2.928.525-1.03.56-1.21.56-2.895 0-1.701-.035-1.865-.595-2.993-1.031-2.045-2.658-3.14-4.861-3.272-1.574-.098-2.641.164-3.673.9-.42.294-.787.54-.84.54-.052 0-.087-1.325-.087-2.944v-2.945h-3.323v8.375Zm8.185-1.112c1.486.72 2.291 2.748 1.784 4.449-.315 1.03-1.417 2.094-2.414 2.355-2.885.72-5.194-2.404-3.812-5.152.227-.458.559-.949.734-1.096.892-.736 2.763-1.014 3.708-.556ZM112.455 79.6c0 3.156.053 4.236.28 4.94.647 2.158 2.361 3.369 4.792 3.369 1.451 0 2.273-.311 3.305-1.21.315-.279.612-.508.665-.508.035 0 .052.344.035.753l-.053.752 1.434.016 1.435.033.035-6.101.052-6.085h-3.323l.053 3.222c.07 3.893-.07 4.728-.927 5.431-1.085.883-2.711 1.03-3.655.327-.892-.654-.98-1.112-.98-5.201v-3.779h-3.148v4.04Z"/></svg>